<?xml version="1.0" encoding="UTF-8"?>
<svg version="1.1" viewBox="0 0 512 512" xmlns="http://www.w3.org/2000/svg">
 <style>
 	@media (prefers-color-scheme: dark) {
 	 .logo {
 	 	fill: #fff;
 	 }
 	}
 </style>
 <rect width="512" height="512" fill="none"/>
 <path class="logo" fill="#000" d="m152.88 55.171c-5.3108 3.5272-7.9663 7.9361-7.9663 13.227v374.32c0 4.8499 2.6554 9.2588 8.4088 13.227 5.3108 3.9678 11.949 6.1722 19.916 6.1722 7.5237 0 14.162-2.2044 19.916-6.1722 5.7534-3.9682 8.8512-8.3771 8.8512-13.227v-374.32c0-5.2908-2.6551-9.6998-8.4084-13.227-5.7538-3.5272-12.392-5.2907-20.358-5.2907-7.9663 0-15.047 1.7635-20.358 5.2907z"/>
 <path class="logo" fill="#000" d="m317.52 203.75-76.565 47.617c-3.5407 3.0861-4.8682 7.936-4.4258 14.55 0.44279 6.6133 3.5407 12.786 8.8517 18.518 5.3106 5.7316 11.507 9.6998 18.588 11.023 6.6385 1.3227 11.95 0.88168 15.49-2.6455l30.094-18.959v167.98c0 4.8499 2.6555 9.2592 7.9665 13.227 5.3106 3.9682 11.949 6.1726 19.916 6.1726 7.9661 0 15.047-2.2044 20.801-6.1726 5.7534-3.9678 8.8512-8.3771 8.8512-13.227v-224.86c0-5.291-2.6555-9.6998-8.4089-13.227-5.7534-3.5272-12.392-5.291-20.801-5.291-8.8513 0-15.49 1.7638-20.358 5.291z"/>
</svg>
