<svg width="107" height="40" viewBox="0 0 107 40" fill="none" xmlns="http://www.w3.org/2000/svg">
<path d="M0 0V32.1252L3.0277 33.8762L10.5965 38.2503L13.6243 40L16.652 38.2503L24.2208 33.8762L27.2485 32.1261V0H0ZM24.2208 30.3751L13.6243 36.5002L3.0277 30.3751V3.03121H24.2208V30.3751Z" fill="#0B6B9F"/>
<path d="M16.6812 17.1001V10.8977H10.5732C10.5732 12.1309 9.5474 13.1308 8.28264 13.1308V16.109H10.5732V18.5888H22.7891V29.3094L13.6272 34.4673L4.46527 29.3094V22.3114H10.5732V25.7579L13.623 27.4752L16.6812 25.752V20.8345H4.46527V4.94458H22.7891V17.1001H16.6812Z" fill="#27A4E8"/>
<path d="M46.0744 8.78705C46.0744 8.81777 46.0744 8.84848 46.0744 8.8792C46.0744 11.1919 46.0744 13.5047 46.0744 15.8174C46.0733 15.8327 46.0733 15.8481 46.0744 15.8635C46.0821 15.9216 46.0569 15.9381 45.9998 15.9381C44.7915 15.9381 43.5831 15.9381 42.3747 15.9381C42.3122 15.9381 42.2991 15.9178 42.2991 15.8591C42.2991 14.7313 42.2991 13.6034 42.2991 12.4756C42.2991 12.3829 42.2991 12.3823 42.2053 12.3823H40.6883C40.5984 12.3823 40.5984 12.3823 40.5984 12.4739V17.7862C40.5984 17.8745 40.5984 17.8745 40.6899 17.8745C41.7053 17.8745 42.7185 17.8657 43.7361 17.8772C44.6741 17.8888 45.3743 18.3249 45.8386 19.1356C46.0033 19.4381 46.0851 19.7788 46.0755 20.1231C46.0755 23.059 46.0755 25.9949 46.0755 28.9308C46.0784 28.9743 46.0612 29.0167 46.0289 29.046C45.265 29.7635 44.5014 30.4815 43.7383 31.2001C43.7139 31.2169 43.6862 31.2281 43.6571 31.2331C43.6389 31.2355 43.6205 31.2355 43.6023 31.2331H36.8318V24.0667H40.5984V27.5621C40.5984 27.6559 40.5984 27.6559 40.6905 27.6559C41.2014 27.6559 41.7124 27.6559 42.2256 27.6559C42.2903 27.6559 42.3051 27.6362 42.3051 27.5742C42.3051 25.5577 42.3051 23.5411 42.3051 21.5246C42.3051 21.4599 42.2859 21.4445 42.2234 21.4451C41.1993 21.4451 40.1751 21.45 39.1531 21.4451C38.5068 21.4514 37.8861 21.1927 37.4354 20.7292C37.1134 20.4133 36.9066 19.9984 36.8483 19.5509C36.8363 19.453 36.8306 19.3544 36.8313 19.2558C36.8313 16.5437 36.8313 13.8316 36.8313 11.1195C36.8269 11.0741 36.8436 11.0292 36.8768 10.9977C37.6388 10.278 38.3997 9.55723 39.1592 8.83532C39.1734 8.81968 39.1864 8.80299 39.1981 8.7854L46.0744 8.78705Z" fill="#0B6B9F"/>
<path d="M57.3686 8.78687C57.3686 8.81978 57.3686 8.85269 57.3686 8.88506V12.2861C57.3686 12.3799 57.3686 12.3799 57.2765 12.3799H53.033C53.011 12.3799 52.9886 12.3799 52.9672 12.3799C52.9123 12.3739 52.8921 12.3948 52.8921 12.4534C52.8921 14.1298 52.8921 15.8063 52.8921 17.4827C52.8921 17.504 52.8921 17.526 52.8954 17.5545H56.5325V21.1273C56.504 21.1273 56.4744 21.1311 56.4448 21.1311H52.9908C52.8921 21.1311 52.8921 21.1311 52.8921 21.2321V27.5603C52.8921 27.6563 52.8921 27.6563 52.988 27.6563H57.5972V31.2268C57.5759 31.2268 57.5528 31.2307 57.5298 31.2307C54.752 31.2307 51.9741 31.2307 49.1962 31.2307C49.1343 31.2307 49.1129 31.2109 49.12 31.1522C49.1211 31.1325 49.1211 31.1127 49.12 31.093V8.89877C49.12 8.86147 49.12 8.82417 49.12 8.78906L57.3686 8.78687Z" fill="#0B6B9F"/>
<path d="M62.866 8.78931H69.7495V16.0687H65.9637V12.3901H64.2427V27.6532H65.9637V23.9274H69.7495V29.0307L67.3409 31.2381H60.4877V11.0433L62.866 8.78931Z" fill="#0B6B9F"/>
<path d="M94.9607 8.84611V31.1429C94.9607 31.2337 94.9607 31.2337 94.8719 31.2337H94.6865C93.4332 31.2337 92.1799 31.2337 90.9266 31.2337H90.8262C90.8065 31.2346 90.7869 31.2312 90.7687 31.2236C90.7444 31.2085 90.7285 31.1829 90.7259 31.1544C90.5406 30.3404 90.3538 29.5263 90.1656 28.7122L89.3317 25.0917C89.0623 23.9215 88.7931 22.7512 88.5241 21.581C88.5126 21.5288 88.4978 21.4778 88.4846 21.4268H88.4676V31.2318H84.814C84.6791 31.2318 84.6928 31.2532 84.6928 31.1089C84.6928 23.7011 84.6928 16.2936 84.6928 8.88615C84.6928 8.85324 84.6928 8.82033 84.6928 8.78741H89.0482C89.0474 8.79397 89.0474 8.8006 89.0482 8.80716L89.4446 10.6064C89.6533 11.5522 89.862 12.4979 90.0707 13.4436C90.2495 14.2522 90.4282 15.0609 90.6069 15.8699C90.6603 16.1102 90.7131 16.3506 90.7654 16.5912L90.9233 17.3082C90.9814 17.5737 91.0397 17.8394 91.0982 18.1053C91.125 18.2281 91.153 18.3505 91.181 18.4728H91.1974V8.86531C91.1974 8.83898 91.1974 8.8132 91.193 8.78687H94.9563C94.9601 8.80661 94.9607 8.82636 94.9607 8.84611Z" fill="#27A4E8"/>
<path d="M78.1543 8.76172H81.9702C81.9702 8.79628 81.9664 8.83139 81.9664 8.86649C81.9664 15.5304 81.9664 22.1941 81.9664 28.8577C81.9717 28.9054 81.955 28.9529 81.9209 28.9866C81.1588 29.7118 80.3969 30.4377 79.6352 31.1644C79.6065 31.1893 79.5701 31.2034 79.5321 31.2044C77.3259 31.2066 75.1197 31.2066 72.9135 31.2044C72.8905 31.2044 72.8674 31.2044 72.84 31.2001V8.87143C72.84 8.83468 72.84 8.79738 72.84 8.76172H76.6559C76.6559 8.78531 76.6515 8.80944 76.6515 8.83358C76.6515 15.036 76.6515 21.2386 76.6515 27.4413C76.6515 27.5082 76.6685 27.5263 76.7354 27.5263C77.174 27.5231 77.617 27.5263 78.0578 27.5263C78.1615 27.5263 78.1615 27.5263 78.1615 27.4238C78.1615 21.2323 78.1615 15.0405 78.1615 8.84839C78.1576 8.81657 78.1554 8.7886 78.1543 8.76172Z" fill="#27A4E8"/>
<path d="M100.473 8.76172L98.0057 11.2302L97.9991 11.1907V31.2335C99.2517 31.2313 100.505 31.2313 101.759 31.2335V24.0666H103.098V31.2335C104.351 31.2313 105.604 31.2313 106.858 31.2335V8.76172H100.473ZM101.759 20.6106V12.2177H103.098V20.6106H101.759Z" fill="#27A4E8"/>
</svg>
